# xmcd CD database file
#
# Track frame offsets:
#       150
#       20637
#       38514
#       57031
#       73498
#       94650
#       114498
#       135358
#       150168
#       168601
#
# Disc length: 2441 seconds
#
# Revision: 0
# Processed by: cddbd v1.5.2PL0 Copyright (c) Steve Scherf et al.
# Submitted via: jack 3.1.1
#
DISCID=7909870a
DTITLE=Romi Mayes - Lucky Tonight
DYEAR=2011
DGENRE=Country - Blues
TTITLE0=Easy on You
TTITLE1=Don't Mess With Me
TTITLE2=Heavy Heart
TTITLE3=Lucky Tonight
TTITLE4=Ball and Chain
TTITLE5=Make You Love Me
TTITLE6=After the Show
TTITLE7=Not My Baby
TTITLE8=Can't Get YOu Off (My Mind)
TTITLE9=I Will
EXTD=
EXTT0=
EXTT1=
EXTT2=
EXTT3=
EXTT4=
EXTT5=
EXTT6=
EXTT7=
EXTT8=
EXTT9=
PLAYORDER=
